<?xml version="1.0" encoding="utf-8"?>
<!-- Generator: Adobe Illustrator 19.2.0, SVG Export Plug-In . SVG Version: 6.00 Build 0)  -->
<svg version="1.1" id="Layer_1" xmlns="http://www.w3.org/2000/svg" xmlns:xlink="http://www.w3.org/1999/xlink" x="0px" y="0px"
	 viewBox="0 0 20 20" enable-background="new 0 0 20 20" xml:space="preserve">
<g>
	<g>
		<path fill="#B3B3B3" d="M14.3,2c0,0-7.4,0-8.5,0C4.6,2,4.3,2.9,4.3,3.4c0,0.6,0,13.6,0,13.6c0,0.6,0.3,0.9,0.5,0.9
			c0.2,0.1,0.7,0.1,1-0.2c0,0,4-4.7,4.1-4.7c0.1-0.1,0.1-0.1,0.2-0.1c0.2,0,1.8,0,2.6,0c1.1,0,1.3-0.8,1.4-1.2
			c0.1-0.4,1.2-5.9,1.5-7.6C15.9,2.7,15.6,2,14.3,2z M14.1,11.6c0.1-0.4,1.2-5.9,1.5-7.6 M13.8,4.3l-0.4,1.9c0,0.2-0.3,0.4-0.5,0.4
			c-0.2,0-3.3,0-3.3,0C9.2,6.6,9,6.8,9,7.2v0.4C9,8,9.2,8.3,9.6,8.3c0,0,2.6,0,2.8,0c0.3,0,0.5,0.3,0.5,0.6
			c-0.1,0.3-0.3,1.7-0.4,1.8c0,0.2-0.2,0.4-0.5,0.4c-0.3,0-2.3,0-2.3,0c-0.4,0-0.5,0.1-0.8,0.4c-0.3,0.3-2.8,3.4-2.8,3.4
			c0,0-0.1,0-0.1,0V4.3C6,4,6.2,3.8,6.6,3.8c0,0,6.6,0,6.8,0C13.7,3.8,13.9,4,13.8,4.3z"/>
	</g>
</g>
</svg>
