<?xml version="1.0" encoding="utf-8"?>
<!-- Generator: Adobe Illustrator 19.2.0, SVG Export Plug-In . SVG Version: 6.00 Build 0)  -->
<svg version="1.1" id="Layer_1" xmlns="http://www.w3.org/2000/svg" xmlns:xlink="http://www.w3.org/1999/xlink" x="0px" y="0px"
	 viewBox="0 0 140 140" enable-background="new 0 0 140 140" xml:space="preserve">
<path fill="#E5CEA8" d="M38.6,31.7c-2,1.7-4,3.5-5.7,5.5c-0.5,0.6-0.5,1.6,0.1,2.1c0.3,0.3,0.6,0.4,1,0.4c0.4,0,0.8-0.2,1.1-0.5
	c1.6-1.9,3.5-3.6,5.4-5.2c0.6-0.5,0.7-1.5,0.2-2.1C40.2,31.3,39.2,31.2,38.6,31.7z M53.6,113.5c-2.3-0.9-4.6-2-6.8-3.2
	c-0.7-0.4-1.6-0.2-2,0.5c-0.4,0.7-0.2,1.6,0.5,2c2.3,1.3,4.7,2.5,7.2,3.4c0.2,0.1,0.4,0.1,0.5,0.1c0.6,0,1.2-0.4,1.4-1
	C54.7,114.7,54.3,113.8,53.6,113.5z M75.7,116.2c-2.5,0.3-5,0.4-7.5,0.3c-0.8,0-1.5,0.6-1.6,1.4c0,0.8,0.6,1.5,1.4,1.6
	c0.6,0,1.3,0,1.9,0c2,0,4-0.1,6-0.4c0.8-0.1,1.4-0.8,1.3-1.7C77.2,116.6,76.5,116.1,75.7,116.2z M62.2,63c-0.8-0.3-1.6,0-2,0.8
	L53.1,81c-0.3,0.8,0,1.6,0.8,2c0.2,0.1,0.4,0.1,0.6,0.1c0.6,0,1.1-0.3,1.4-0.9L63,64.9C63.3,64.2,63,63.3,62.2,63z M23.7,73.8
	c-0.1-0.8-0.8-1.4-1.6-1.4c-0.8,0.1-1.4,0.8-1.4,1.6c0.2,2.6,0.6,5.3,1.3,7.9c0.2,0.7,0.8,1.1,1.5,1.1c0.1,0,0.2,0,0.4,0
	c0.8-0.2,1.3-1,1.1-1.8C24.3,78.8,23.9,76.3,23.7,73.8z M52.9,26.7c0.2,0,0.4,0,0.5-0.1c2.3-0.9,4.7-1.6,7.2-2.1
	c0.8-0.2,1.3-1,1.2-1.8c-0.2-0.8-1-1.3-1.8-1.2c-2.6,0.5-5.2,1.3-7.6,2.2c-0.8,0.3-1.2,1.2-0.9,1.9C51.7,26.3,52.2,26.7,52.9,26.7z
	 M30.7,94.9c-0.4-0.7-1.4-0.9-2.1-0.5c-0.7,0.4-0.9,1.4-0.5,2.1c1.4,2.2,3,4.4,4.8,6.4c0.3,0.3,0.7,0.5,1.1,0.5c0.4,0,0.7-0.1,1-0.4
	c0.6-0.6,0.7-1.5,0.1-2.1C33.6,99,32.1,97,30.7,94.9z M26.4,49.9c-0.8-0.3-1.6,0-2,0.8c-1,2.4-1.9,5-2.5,7.6
	c-0.2,0.8,0.3,1.6,1.1,1.8c0.1,0,0.2,0,0.4,0c0.7,0,1.3-0.5,1.5-1.1c0.6-2.4,1.4-4.8,2.4-7.1C27.5,51.1,27.1,50.2,26.4,49.9z
	 M75.5,23.8c2.5,0.3,4.9,0.8,7.3,1.5c0.1,0,0.3,0.1,0.4,0.1c0.7,0,1.3-0.4,1.4-1.1c0.2-0.8-0.2-1.6-1-1.9c-2.5-0.7-5.2-1.3-7.8-1.6
	c-0.8-0.1-1.6,0.5-1.7,1.3C74.1,23,74.6,23.7,75.5,23.8z M98,29.2c-0.7-0.5-1.6-0.3-2.1,0.4s-0.3,1.6,0.4,2.1c2.1,1.4,4,3,5.8,4.7
	c0.3,0.3,0.7,0.4,1,0.4c0.4,0,0.8-0.2,1.1-0.5c0.6-0.6,0.5-1.5,0-2.1C102.2,32.3,100.2,30.7,98,29.2z M69.7,66.1
	c-0.8-0.3-1.6,0-2,0.8l-7.1,17.2c-0.3,0.8,0,1.6,0.8,2c0.2,0.1,0.4,0.1,0.6,0.1c0.6,0,1.1-0.3,1.4-0.9L70.5,68
	C70.8,67.3,70.4,66.4,69.7,66.1z M96.4,108.3c-2,1.4-4.2,2.7-6.5,3.7c-0.7,0.4-1.1,1.3-0.7,2c0.3,0.5,0.8,0.9,1.4,0.9
	c0.2,0,0.4,0,0.6-0.1c2.4-1.1,4.7-2.5,6.9-4c0.7-0.5,0.9-1.4,0.4-2.1C98.1,108,97.1,107.8,96.4,108.3z M116.9,54.1
	c-0.8-2.5-1.9-5-3.2-7.3c-0.4-0.7-1.3-1-2-0.6c-0.7,0.4-1,1.3-0.6,2c1.2,2.2,2.2,4.5,3,6.9c0.2,0.6,0.8,1,1.4,1c0.2,0,0.3,0,0.5-0.1
	C116.7,55.8,117.2,54.9,116.9,54.1z M118,68.3c-0.8,0-1.5,0.7-1.5,1.5V70c0,2.5-0.2,5-0.6,7.5c-0.1,0.8,0.4,1.6,1.2,1.7
	c0.1,0,0.2,0,0.2,0c0.7,0,1.4-0.5,1.5-1.3c0.4-2.6,0.6-5.3,0.6-7.9v-0.2C119.5,69,118.8,68.3,118,68.3z M70,8.5
	C36.1,8.5,8.5,36.1,8.5,70s27.6,61.5,61.5,61.5s61.5-27.6,61.5-61.5S103.9,8.5,70,8.5z M70,128.5c-32.3,0-58.5-26.2-58.5-58.5
	S37.7,11.5,70,11.5s58.5,26.2,58.5,58.5S102.3,128.5,70,128.5z M113.2,91c-0.7-0.4-1.6-0.1-2,0.6c-1.2,2.2-2.5,4.3-4,6.3
	c-0.5,0.7-0.4,1.6,0.3,2.1c0.3,0.2,0.6,0.3,0.9,0.3c0.5,0,0.9-0.2,1.2-0.6c1.6-2.1,3-4.4,4.3-6.7C114.2,92.3,113.9,91.4,113.2,91z
	 M77.1,69.2c-0.8-0.3-1.6,0-2,0.8L68,87.2c-0.3,0.8,0,1.6,0.8,2c0.2,0.1,0.4,0.1,0.6,0.1c0.6,0,1.1-0.3,1.4-0.9L78,71.1
	C78.3,70.4,77.9,69.5,77.1,69.2z M88.4,75l-6.1-2.5l-7.4,17.9l6.1,2.5c0.8,0.3,1.7,0.3,2.5,0c0.8-0.3,1.4-1,1.8-1.8l4.9-11.8
	C90.8,77.7,90,75.7,88.4,75z M82.5,90c0,0,0,0.1-0.2,0.2c-0.1,0-0.2,0-0.2,0l-3.4-1.4l5.1-12.4l3.4,1.4c0.2,0.1,0.2,0.2,0.2,0.4
	L82.5,90z M95.7,81.6c2-4.7-0.3-10.2-5-12.2l-3.4-1.4l0.8-1.9c0.1,0,0.2,0,0.2,0c1.2,0,2.3-0.2,3.4-0.7c2.2-0.9,3.9-2.6,4.8-4.9
	c1.9-4.6-0.3-9.8-4.8-11.7c0,0,0,0,0,0c-0.2-0.1-0.4-0.1-0.5-0.2c0.2-5.5-3-10.7-8.2-12.8c-4.3-1.8-9.2-1.2-12.9,1.5
	c-0.3-0.2-0.6-0.4-1-0.5c-2.7-1.1-5.7,0.2-6.8,2.8c0,0.1-0.1,0.2-0.1,0.2c-3.2-0.1-6.1,1.7-7.4,4.8c-1.2,3-0.5,6.3,1.7,8.4
	L43.1,85.6c-1.1,2.7,0.2,5.7,2.8,6.8l21.8,9c0.6,0.3,1.3,0.4,2,0.4s1.4-0.1,2-0.4c1.3-0.5,2.3-1.5,2.8-2.8l0.7-1.6l3.4,1.4
	c1.1,0.5,2.4,0.7,3.6,0.7s2.4-0.2,3.6-0.7c2.3-1,4.1-2.7,5-5L95.7,81.6z M57.6,45.9c0.9-2.1,3.2-3.3,5.4-2.8c0.4,0.1,0.9,0,1.3-0.3
	c0.4-0.3,0.6-0.7,0.6-1.1c0-0.3,0.1-0.6,0.2-0.8c0.5-1.1,1.8-1.7,2.9-1.2c0.3,0.1,0.6,0.4,0.9,0.7c0.3,0.3,0.6,0.5,1,0.6
	c0.4,0,0.8-0.1,1.1-0.4c3-2.7,7.1-3.4,10.8-1.9c4.4,1.8,6.9,6.3,6.3,11c-0.1,0.8,0.4,1.6,1.2,1.7c0.4,0.1,0.9,0.2,1.3,0.4
	c3,1.3,4.5,4.8,3.2,7.8c-0.6,1.5-1.8,2.6-3.2,3.2c-1.5,0.6-3.1,0.6-4.6,0l-13.2-5.5c-0.2-0.1-0.4-0.1-0.6-0.1s-0.4,0-0.6,0.1
	c-0.4,0.2-0.7,0.4-0.8,0.8c-0.4,0.9-1,1.5-1.9,1.9c-0.9,0.4-1.8,0.4-2.7,0c-0.9-0.4-1.5-1-1.9-1.9c-0.4-0.9-0.4-1.8,0-2.7
	c0.3-0.8,0-1.6-0.8-2L60.2,52C57.8,51,56.6,48.3,57.6,45.9z M88,92.3c-0.6,1.6-1.9,2.8-3.4,3.4c-0.8,0.3-1.6,0.5-2.4,0.5
	s-1.6-0.2-2.4-0.5l-6.1-2.5l-1.8,4.4c-0.2,0.5-0.7,1-1.2,1.2c-0.5,0.2-1.2,0.2-1.7,0l-21.8-9c-1.1-0.5-1.7-1.8-1.2-2.9l13.2-31.9
	l2.1,0.9c-0.5,2.9,1.1,5.8,3.9,7c1.6,0.7,3.4,0.7,5,0c1.1-0.5,2.1-1.2,2.8-2.2l12,5c0.1,0,0.1,0,0.2,0.1l-1.7,4.1l6.1,2.5
	c3.2,1.3,4.7,5,3.4,8.2L88,92.3z"/>
</svg>
