<?xml version="1.0" encoding="utf-8"?>
<!-- Generator: Adobe Illustrator 19.2.0, SVG Export Plug-In . SVG Version: 6.00 Build 0)  -->
<svg version="1.1" id="Layer_1" xmlns="http://www.w3.org/2000/svg" xmlns:xlink="http://www.w3.org/1999/xlink" x="0px" y="0px"
	 viewBox="0 0 20 20" enable-background="new 0 0 20 20" xml:space="preserve">
<g>
	<path fill="#CCCCCC" d="M7.9,3.2C7.5,3.4,7.4,3.7,7.4,3.8c0,0.1,0.2,0.1,0.2,0.1c0,0.1,0,0.2,0,0.2c0,0,0.1,0,0.2,0.2
		c0.1,0.1,2,4,2.3,4.4c0.1,0.3,0.2,1.6,0.3,1.7c0.1,0.2,4.3,6.1,4.5,6.3c0.3,0.5,1.4,0.3,2.3-0.3c0.9-0.6,1.5-1.6,1.2-2.2
		c-0.1-0.2-4.3-6.1-4.5-6.3c-0.1-0.1-1.2-0.6-1.5-0.9C12.1,6.8,9.1,3.7,9,3.6C8.9,3.5,8.9,3.4,8.9,3.3c0-0.1-0.2,0-0.2-0.1
		c0-0.1,0-0.3-0.1-0.3C8.3,2.9,7.9,3.2,7.9,3.2z"/>
	<path fill="#B3B3B3" d="M12,3.2c-0.4-0.3-0.7-0.3-0.8-0.3c-0.1,0,0,0.2,0,0.3c0,0.1-0.2,0-0.2,0.1c0,0.1,0,0.1-0.1,0.2
		c-0.1,0.1-3.1,3.2-3.4,3.6C7.2,7.4,6.1,7.9,6,8.1c-0.1,0.1-4.3,6.1-4.4,6.3c-0.3,0.5,0.2,1.4,1,2c0.9,0.6,2,0.9,2.4,0.4
		c0.2-0.2,4.3-6.1,4.4-6.3c0.1-0.2,0.2-1.4,0.3-1.7C10.1,8.4,12,4.5,12,4.4c0.1-0.1,0.2-0.1,0.2-0.2c0,0,0-0.2,0-0.2
		c0-0.1,0.3-0.1,0.2-0.2C12.5,3.5,12,3.2,12,3.2z"/>
</g>
</svg>
