<?xml version="1.0" encoding="utf-8"?>
<!-- Generator: Adobe Illustrator 19.2.0, SVG Export Plug-In . SVG Version: 6.00 Build 0)  -->
<svg version="1.1" id="Layer_1" xmlns="http://www.w3.org/2000/svg" xmlns:xlink="http://www.w3.org/1999/xlink" x="0px" y="0px"
	 viewBox="0 0 40 40" enable-background="new 0 0 40 40" xml:space="preserve">
<path d="M20.4,25.9c-0.4-0.4-0.4-1,0-1.4l0,0c0.4-0.4,1-0.4,1.4,0l0,0c0.4,0.4,0.4,1,0,1.4l0,0c-0.2,0.2-0.5,0.3-0.7,0.3l0,0
	C20.9,26.2,20.6,26.1,20.4,25.9z M23.2,23.1c-0.4-0.4-0.4-1,0-1.4l0,0c0.4-0.4,1-0.4,1.4,0l0,0c0.4,0.4,0.4,1,0,1.4l0,0
	c-0.2,0.2-0.5,0.3-0.7,0.3l0,0C23.7,23.4,23.5,23.3,23.2,23.1z M21.7,16.6c-0.5-0.2-0.7-0.8-0.5-1.3l0,0c0.2-0.5,0.8-0.7,1.3-0.5
	l0,0c0.5,0.2,0.7,0.8,0.5,1.3l0,0c-0.2,0.4-0.5,0.6-0.9,0.6l0,0C22,16.7,21.9,16.7,21.7,16.6z M18.1,14.9c-0.5-0.2-0.7-0.8-0.5-1.3
	l0,0c0.2-0.5,0.8-0.7,1.3-0.5l0,0c0.5,0.2,0.7,0.8,0.5,1.3l0,0c-0.2,0.4-0.5,0.6-0.9,0.6l0,0C18.4,15,18.2,15,18.1,14.9z"/>
<path d="M27.9,22.1c-2,0-3.7-1.7-3.7-3.7s1.7-3.7,3.7-3.7c2,0,3.7,1.7,3.7,3.7S30,22.1,27.9,22.1z M27.9,16.7
	c-0.9,0-1.7,0.8-1.7,1.7s0.8,1.7,1.7,1.7c0.9,0,1.7-0.8,1.7-1.7S28.9,16.7,27.9,16.7z"/>
<path d="M17.1,33c-2,0-3.7-1.7-3.7-3.7c0-2,1.7-3.7,3.7-3.7s3.7,1.7,3.7,3.7C20.8,31.3,19.1,33,17.1,33z M17.1,27.6
	c-0.9,0-1.7,0.8-1.7,1.7c0,0.9,0.8,1.7,1.7,1.7s1.7-0.8,1.7-1.7C18.8,28.3,18,27.6,17.1,27.6z"/>
<path d="M9.4,15.4c-0.3,0-0.5-0.1-0.7-0.3c-0.4-0.4-0.4-1,0-1.4L15,7.3c0.4-0.4,1-0.4,1.4,0s0.4,1,0,1.4l-6.4,6.4
	C9.9,15.3,9.6,15.4,9.4,15.4z"/>
<path d="M15.8,15.4c-0.3,0-0.5-0.1-0.7-0.3L8.6,8.7c-0.4-0.4-0.4-1,0-1.4s1-0.4,1.4,0l6.4,6.4c0.4,0.4,0.4,1,0,1.4
	C16.3,15.3,16,15.4,15.8,15.4z"/>
</svg>
