<?xml version="1.0" encoding="utf-8"?>
<!-- Generator: Adobe Illustrator 19.2.0, SVG Export Plug-In . SVG Version: 6.00 Build 0)  -->
<svg version="1.1" id="Layer_1" xmlns="http://www.w3.org/2000/svg" xmlns:xlink="http://www.w3.org/1999/xlink" x="0px" y="0px"
	 viewBox="0 0 64 64" enable-background="new 0 0 64 64" xml:space="preserve">
<circle fill="#FFFFFF" cx="32" cy="32" r="30"/>
<path fill="#2A395E" d="M31.9,29.7c-0.5-0.2-1.1,0-1.3,0.5l-3.9,9.4c-0.2,0.5,0,1.1,0.5,1.3c0.1,0.1,0.3,0.1,0.4,0.1
	c0.4,0,0.8-0.2,0.9-0.6l3.9-9.4C32.6,30.5,32.4,29.9,31.9,29.7z M36,31.4c-0.5-0.2-1.1,0-1.3,0.5l-3.9,9.4c-0.2,0.5,0,1.1,0.5,1.3
	c0.1,0.1,0.3,0.1,0.4,0.1c0.4,0,0.8-0.2,0.9-0.6l3.9-9.4C36.7,32.2,36.5,31.6,36,31.4z M27.8,28c-0.5-0.2-1.1,0-1.3,0.5l-3.9,9.4
	c-0.2,0.5,0,1.1,0.5,1.3c0.1,0.1,0.3,0.1,0.4,0.1c0.4,0,0.8-0.2,0.9-0.6l3.9-9.4C28.6,28.8,28.3,28.2,27.8,28z M42,30.1
	c0.7,0,1.3-0.1,1.9-0.4c1.3-0.5,2.2-1.5,2.7-2.7c1.1-2.6-0.2-5.6-2.7-6.6l0,0c-0.1,0-0.1,0-0.2-0.1c0.1-3-1.7-5.9-4.6-7
	c-2.4-1-5-0.7-7.1,0.8c-0.1-0.1-0.3-0.2-0.5-0.2c-0.7-0.3-1.6-0.3-2.3,0c-0.7,0.3-1.3,0.9-1.6,1.6c0,0,0,0,0,0c-1.7,0-3.4,1-4.1,2.7
	c-0.4,1.1-0.4,2.3,0,3.4c0.2,0.5,0.5,1,0.9,1.4l-7.3,17.6c-0.6,1.5,0.1,3.3,1.6,4l11.9,4.9c0.4,0.2,0.8,0.2,1.2,0.2s0.8-0.1,1.2-0.2
	c0.7-0.3,1.3-0.9,1.6-1.6l0.1-0.4l1.7,0.7c0.7,0.3,1.4,0.4,2.2,0.4s1.5-0.1,2.2-0.4c1.4-0.6,2.5-1.7,3-3l2.7-6.4
	c1.2-2.9-0.2-6.2-3-7.3l-1.7-0.7L42,30.1C42,30.1,42,30.1,42,30.1z M42.7,33.1c1.8,0.8,2.7,2.9,2,4.7L42,44.2c-0.4,0.9-1.1,1.6-2,2
	c-0.4,0.2-0.9,0.3-1.4,0.3c-0.5,0-0.9-0.1-1.4-0.3l-3.5-1.5l-0.9,2.2c-0.2,0.5-0.8,0.8-1.4,0.6l-11.9-4.9c-0.5-0.2-0.8-0.8-0.6-1.4
	L26.2,24l0.9,0.4c-0.1,0.6,0,1.3,0.3,1.9c0.4,0.9,1.1,1.6,2,2c0.9,0.4,1.9,0.4,2.8,0c0.6-0.2,1.1-0.6,1.5-1.1l6.3,2.6l-0.8,1.9
	L42.7,33.1z M40.8,27.9l-7.2-3c-0.1-0.1-0.3-0.1-0.4-0.1s-0.3,0-0.4,0.1c-0.2,0.1-0.4,0.3-0.5,0.5c-0.2,0.4-0.5,0.8-0.9,0.9
	s-0.9,0.2-1.3,0c-0.4-0.2-0.8-0.5-0.9-0.9c-0.2-0.4-0.2-0.9,0-1.3c0.2-0.5,0-1.1-0.5-1.3L26.7,22c-0.6-0.2-1-0.7-1.3-1.3
	c-0.2-0.6-0.2-1.2,0-1.8c0.5-1.1,1.6-1.7,2.8-1.4c0.3,0.1,0.6,0,0.8-0.2c0.2-0.2,0.4-0.5,0.4-0.8c0-0.1,0-0.3,0.1-0.4
	c0.2-0.5,0.8-0.8,1.4-0.6c0.2,0.1,0.3,0.2,0.4,0.3c0.2,0.2,0.4,0.4,0.7,0.4c0.3,0,0.5-0.1,0.8-0.3c1.6-1.4,3.8-1.8,5.7-1
	c2.3,1,3.7,3.3,3.3,5.8c-0.1,0.5,0.3,1,0.8,1.1c0.2,0,0.4,0.1,0.6,0.2c1.6,0.6,2.3,2.4,1.7,4c-0.3,0.8-0.9,1.3-1.7,1.7
	C42.4,28.2,41.6,28.2,40.8,27.9z M34.5,42.9l3.5,1.5c0.4,0.2,0.8,0.2,1.2,0c0.4-0.2,0.7-0.5,0.9-0.9l2.7-6.4
	c0.3-0.8-0.1-1.8-0.9-2.1l-3.5-1.5L34.5,42.9z M40.8,36.6l-2.4,5.7l-1.3-0.5l2.4-5.7L40.8,36.6z M32,1C14.9,1,1,14.9,1,32
	c0,17.1,13.9,31,31,31c17.1,0,31-13.9,31-31C63,14.9,49.1,1,32,1z M32,61C16,61,3,48,3,32C3,16,16,3,32,3c16,0,29,13,29,29
	C61,48,48,61,32,61z"/>
</svg>
