<?xml version="1.0" encoding="utf-8"?>
<!-- Generator: Adobe Illustrator 19.2.0, SVG Export Plug-In . SVG Version: 6.00 Build 0)  -->
<svg version="1.1" id="Layer_1" xmlns="http://www.w3.org/2000/svg" xmlns:xlink="http://www.w3.org/1999/xlink" x="0px" y="0px"
	 viewBox="0 0 40 40" enable-background="new 0 0 40 40" xml:space="preserve">
<path d="M30,7c0.4-1-0.1-2.2-1.2-2.6l-2.1-0.9c-1-0.4-2.2,0-2.7,1l-3.8,7.9c-0.2,0.4-0.6,0.8-1,1l-1.8,0.9c-0.9,0.5-1.6,1.2-2,2.1
	L10,30.1c-0.6,1.3,0.1,2.9,1.4,3.4l7,2.9c0.3,0.1,0.7,0.2,1,0.2c0.3,0,0.7-0.1,1-0.2c0.6-0.3,1.2-0.8,1.4-1.4l5.6-13.5
	c0.4-0.9,0.4-2,0.1-2.9l-0.6-1.9c-0.1-0.5-0.1-1,0-1.4L30,7z M26,5.4C26,5.4,26,5.4,26,5.4l2.1,0.9c0,0,0.1,0.1,0.1,0.1l-0.4,1.1
	l-2.4-1L26,5.4C25.9,5.4,25.9,5.4,26,5.4z M21.5,30.8l-3.1-1.3c0,0-0.1-0.1,0-0.1l2.9-7c0,0,0.1-0.1,0.1,0l3.1,1.3L21.5,30.8z
	 M25.2,14.6c-0.3,0.9-0.3,1.8-0.1,2.7l0.6,1.9c0.2,0.5,0.1,1.1-0.1,1.5l-0.4,1l-3.1-1.3c-0.5-0.2-1.1-0.2-1.6,0
	c-0.5,0.2-0.9,0.6-1.1,1.1l-2.9,7c-0.2,0.5-0.2,1.1,0,1.6c0.2,0.5,0.6,0.9,1.1,1.1l3.1,1.3l-0.7,1.6c-0.1,0.2-0.2,0.3-0.3,0.3
	s-0.3,0.1-0.5,0l-7-2.9c-0.3-0.1-0.5-0.5-0.3-0.8l5.6-13.5c0.2-0.5,0.6-0.9,1-1.1l1.8-0.9c0.8-0.4,1.5-1.1,1.9-1.9l2.4-5l2.6,1.1
	L25.2,14.6z"/>
</svg>
