<?xml version="1.0" encoding="utf-8"?>
<!-- Generator: Adobe Illustrator 19.2.0, SVG Export Plug-In . SVG Version: 6.00 Build 0)  -->
<svg version="1.1" id="Layer_1" xmlns="http://www.w3.org/2000/svg" xmlns:xlink="http://www.w3.org/1999/xlink" x="0px" y="0px"
	 viewBox="0 0 64 64" enable-background="new 0 0 64 64" xml:space="preserve">
<g>
	<circle fill="#FFFFFF" cx="32" cy="32" r="30"/>
	<path fill="#22B573" d="M32,63C14.9,63,1,49.1,1,32C1,14.9,14.9,1,32,1c17.1,0,31,13.9,31,31C63,49.1,49.1,63,32,63z M32,3
		C16,3,3,16,3,32c0,16,13,29,29,29c16,0,29-13,29-29C61,16,48,3,32,3z"/>
</g>
<path fill="#22B573" d="M29.9,39.9c-0.5,0-1-0.2-1.4-0.6l-4.8-4.8c-0.8-0.8-0.8-2,0-2.8c0.8-0.8,2-0.8,2.8,0l3.4,3.4l7.7-7.7
	c0.8-0.8,2-0.8,2.8,0c0.8,0.8,0.8,2,0,2.8l-9.2,9.2C30.9,39.7,30.4,39.9,29.9,39.9z"/>
</svg>
