<?xml version="1.0" encoding="utf-8"?>
<!-- Generator: Adobe Illustrator 19.2.0, SVG Export Plug-In . SVG Version: 6.00 Build 0)  -->
<svg version="1.1" id="Layer_1" xmlns="http://www.w3.org/2000/svg" xmlns:xlink="http://www.w3.org/1999/xlink" x="0px" y="0px"
	 viewBox="0 0 64 64" enable-background="new 0 0 64 64" xml:space="preserve">
<path fill="#F2B1A5" d="M41.8,14.8l-2.3-1c-1.1-0.5-2.3,0-2.8,1.1l-4.2,8.8c-0.2,0.5-0.7,0.9-1.2,1.2l-1.9,1c-1,0.5-1.7,1.3-2.1,2.3
	l-6.2,15c-0.3,0.7-0.3,1.5,0,2.2s0.8,1.2,1.5,1.5l7.8,3.2c0.4,0.1,0.7,0.2,1.1,0.2c1.1,0,2.2-0.7,2.6-1.7l6.2-15
	c0.4-1,0.5-2.1,0.1-3.1l-0.7-2.1c-0.2-0.5-0.2-1.1,0-1.7l3.3-9.2C43.5,16.4,42.9,15.2,41.8,14.8z M33.7,44.1l-3.5-1.5
	c-0.1,0-0.1-0.1-0.1-0.1c0,0,0-0.1,0-0.2l3.2-7.8c0-0.1,0.2-0.2,0.3-0.1l3.5,1.5L33.7,44.1z M37.9,26.1L37.9,26.1
	c-0.3,0.9-0.4,2-0.1,2.9l0.7,2.1c0.2,0.6,0.2,1.2-0.1,1.8l-0.5,1.2l-3.5-1.5c-1.1-0.5-2.4,0.1-2.9,1.2l-3.2,7.8
	c-0.2,0.5-0.2,1.1,0,1.7c0.2,0.5,0.7,1,1.2,1.2L33,46l-0.8,1.9c-0.2,0.4-0.7,0.6-1.1,0.4l-7.8-3.2c-0.2-0.1-0.4-0.2-0.4-0.4
	c-0.1-0.2-0.1-0.4,0-0.6l6.2-15c0.2-0.6,0.7-1,1.2-1.3l1.9-1c0.9-0.5,1.6-1.2,2-2.1l2.7-5.7l3,1.3L37.9,26.1z M40.7,18.2L37.8,17
	l0.6-1.3c0-0.1,0.1-0.1,0.2-0.1c0,0,0.1,0,0.1,0l2.3,1c0.1,0,0.2,0.2,0.1,0.3L40.7,18.2z M32,1C14.9,1,1,14.9,1,32
	c0,17.1,13.9,31,31,31c17.1,0,31-13.9,31-31C63,14.9,49.1,1,32,1z M32,61C16,61,3,48,3,32C3,16,16,3,32,3c16,0,29,13,29,29
	C61,48,48,61,32,61z"/>
</svg>
