<?xml version="1.0" encoding="utf-8"?>
<!-- Generator: Adobe Illustrator 19.2.0, SVG Export Plug-In . SVG Version: 6.00 Build 0)  -->
<svg version="1.1" id="Layer_1" xmlns="http://www.w3.org/2000/svg" xmlns:xlink="http://www.w3.org/1999/xlink" x="0px" y="0px"
	 viewBox="0 0 20 20" enable-background="new 0 0 20 20" xml:space="preserve">
<g id="_x30_EDRZE.tif_7_">
	<g>
		<g>
			<path fill="#22B573" d="M14.2,10.8c-0.2,0.3-0.4,0.3-0.7,0.2c-0.3-0.1-0.6-0.3-1-0.4c-0.3-0.1-0.7-0.3-1-0.5
				C11.3,10,11.1,9.8,11,9.6c-0.1-0.1-0.2-0.3-0.3-0.4c0,0.2-0.1,0.3-0.1,0.5c-0.1,0.4-0.2,0.8-0.3,1.2c0,0.2,0.1,0.3,0.1,0.4
				c0.6,0.9,1.1,1.9,1.7,2.8c0.3,0.5,0.7,1.1,1,1.6c0.1,0.2,0.2,0.5,0.2,0.8c-0.1,0.3-0.6,0.6-1,0.3c-0.3-0.2-0.4-0.4-0.6-0.7
				c-0.4-0.7-0.9-1.3-1.3-2c-0.6-1-1.2-1.9-1.8-2.9c-0.2-0.3-0.3-0.6-0.3-1c0-0.3,0.1-0.5,0.1-0.8c0.1-0.5,0.2-1,0.3-1.5
				C8.4,8.3,8.1,8.5,7.8,8.7C7.6,8.9,7.5,9.1,7.5,9.4c-0.1,0.3-0.1,0.7-0.2,1c0,0.3-0.1,0.6-0.2,0.9c-0.1,0.3-0.3,0.4-0.5,0.4
				c-0.2,0-0.5-0.2-0.4-0.5c0-0.3,0.1-0.7,0.1-1c0-0.3,0.1-0.5,0.1-0.8c0-0.3,0.1-0.6,0.1-0.9c0-0.1,0.1-0.3,0.2-0.4
				c0.3-0.3,0.7-0.6,1-0.8c0.3-0.3,0.7-0.6,1-0.8c0.1-0.1,0.3-0.1,0.5-0.1c0.3,0,0.5,0,0.8,0c0.2,0,0.4,0.1,0.6,0.3
				c0.2,0.4,0.4,0.8,0.6,1.2c0.1,0.2,0.2,0.5,0.3,0.8c0,0.1,0.1,0.2,0.1,0.3c0.1,0.2,0.2,0.4,0.5,0.5c0.5,0.2,1,0.5,1.6,0.8
				c0.2,0.1,0.4,0.2,0.5,0.5C14.2,10.6,14.2,10.7,14.2,10.8z"/>
			<path fill="#22B573" d="M5.8,16.3C6,15.8,6.3,15.4,6.5,15c0.2-0.4,0.5-0.7,0.8-1.1c0.2-0.3,0.3-0.6,0.4-1
				c0.1-0.4,0.2-0.7,0.3-1.1c0,0,0,0,0-0.1c0.1,0.1,0.2,0.3,0.3,0.4c0.2,0.3,0.5,0.6,0.7,0.9c0,0,0,0.1,0,0.1
				c-0.1,0.4-0.3,0.9-0.5,1.2c-0.2,0.3-0.4,0.5-0.5,0.7c-0.3,0.4-0.6,0.8-0.9,1.1C7,16.7,6.8,16.9,6.5,17c0,0-0.1,0-0.1,0
				c0,0-0.1,0-0.1,0c-0.2-0.1-0.4-0.2-0.5-0.4C5.8,16.5,5.8,16.4,5.8,16.3z"/>
		</g>
		<circle fill="#22B573" cx="10.7" cy="4.4" r="1.4"/>
	</g>
</g>
</svg>
